<svg width="32" height="32" viewBox="0 0 32 32" fill="none" xmlns="http://www.w3.org/2000/svg">
<path d="M12 26.6667H7.99999C6.5855 26.6667 5.22895 26.1048 4.22875 25.1046C3.22856 24.1044 2.66666 22.7478 2.66666 21.3333V9.33334C2.66666 7.91885 3.22856 6.5623 4.22875 5.5621C5.22895 4.56191 6.5855 4.00001 7.99999 4.00001H22.6667C24.0811 4.00001 25.4377 4.56191 26.4379 5.5621C27.4381 6.5623 28 7.91885 28 9.33334V13.3333M10.6667 2.66667V5.33334M20 2.66667V5.33334M2.66666 10.6667H28M24.6667 20.8573L22.6667 22.8573" stroke="#24AE7C" stroke-width="2.66667" stroke-linecap="round" stroke-linejoin="round"/>
<path d="M22.6667 29.3333C26.3486 29.3333 29.3333 26.3486 29.3333 22.6667C29.3333 18.9848 26.3486 16 22.6667 16C18.9848 16 16 18.9848 16 22.6667C16 26.3486 18.9848 29.3333 22.6667 29.3333Z" stroke="#24AE7C" stroke-width="2.66667" stroke-linecap="round" stroke-linejoin="round"/>
</svg>
